<svg xmlns="http://www.w3.org/2000/svg" width="1280" height="360" viewBox="0 0 1280 360" role="img" aria-label="Lost Xposed">
  <defs>
    <linearGradient id="bg" x1="0" y1="0" x2="1" y2="1">
      <stop offset="0" stop-color="#151033"/><stop offset="0.6" stop-color="#231a5c"/><stop offset="1" stop-color="#3b2b8c"/>
    </linearGradient>
    <linearGradient id="tile" x1="0" y1="0" x2="1" y2="1">
      <stop offset="0" stop-color="#3b2b8c"/><stop offset="0.55" stop-color="#5b3fd6"/><stop offset="1" stop-color="#8a6bff"/>
    </linearGradient>
    <radialGradient id="glow" cx="0.5" cy="0.5" r="0.5">
      <stop offset="0" stop-color="#8a6bff" stop-opacity="0.45"/><stop offset="1" stop-color="#8a6bff" stop-opacity="0"/>
    </radialGradient>
  </defs>
  <rect width="1280" height="360" rx="24" fill="url(#bg)"/>
  <circle cx="560" cy="64" r="1.6" fill="#e6deff" opacity="0.5"/><circle cx="700" cy="300" r="1.2" fill="#e6deff" opacity="0.35"/><circle cx="880" cy="52" r="1.4" fill="#e6deff" opacity="0.45"/><circle cx="1010" cy="286" r="1.8" fill="#e6deff" opacity="0.4"/><circle cx="1130" cy="90" r="1.2" fill="#e6deff" opacity="0.5"/><circle cx="1200" cy="230" r="1.5" fill="#e6deff" opacity="0.3"/><circle cx="640" cy="250" r="1" fill="#e6deff" opacity="0.3"/><circle cx="1060" cy="170" r="1" fill="#e6deff" opacity="0.25"/><circle cx="120" cy="60" r="1.3" fill="#e6deff" opacity="0.3"/><circle cx="90" cy="300" r="1.1" fill="#e6deff" opacity="0.25"/>
  <circle cx="250" cy="180" r="190" fill="url(#glow)"/>
  <g transform="translate(160 90) scale(1.6667)">
    <rect width="108" height="108" rx="26" fill="url(#tile)"/>
    <path d="M34,34 L74,74 M74,34 L34,74" stroke="#fff" stroke-width="10.5" stroke-linecap="round"/>
    <circle cx="54" cy="54" r="8.5" fill="#583dcf"/><circle cx="54" cy="54" r="3.6" fill="#fff"/>
  </g>
  <text x="440" y="196" font-family="-apple-system, 'Segoe UI', Roboto, 'Helvetica Neue', Arial, sans-serif" font-weight="600" font-size="96" fill="#f3efff">Lost Xposed</text>
  <text x="444" y="266" font-family="-apple-system, 'Segoe UI', Roboto, 'Helvetica Neue', Arial, sans-serif" font-size="34" fill="#b9a8ff" letter-spacing="3">LSPOSED · VECTOR · ANDROID 13+</text>
</svg>
